<mxfile host="app.diagrams.net" agent="Mozilla/5.0 (Windows NT 10.0; Win64; x64) AppleWebKit/537.36 (KHTML, like Gecko) Chrome/135.0.0.0 Safari/537.36" version="26.2.13">
  <diagram name="第 1 页" id="wHnKDe0cZnErEmu_zgRF">
    <mxGraphModel dx="1215" dy="623" grid="1" gridSize="10" guides="1" tooltips="1" connect="1" arrows="1" fold="1" page="1" pageScale="1" pageWidth="827" pageHeight="1169" math="0" shadow="0">
      <root>
        <mxCell id="0" />
        <mxCell id="1" parent="0" />
        <mxCell id="_QAs57ZrCI3nKzvENa5E-8" style="edgeStyle=orthogonalEdgeStyle;rounded=0;orthogonalLoop=1;jettySize=auto;html=1;exitX=1;exitY=0.5;exitDx=0;exitDy=0;entryX=0;entryY=0.5;entryDx=0;entryDy=0;" edge="1" parent="1" source="_QAs57ZrCI3nKzvENa5E-1" target="_QAs57ZrCI3nKzvENa5E-4">
          <mxGeometry relative="1" as="geometry" />
        </mxCell>
        <mxCell id="_QAs57ZrCI3nKzvENa5E-1" value="Library" style="rounded=0;whiteSpace=wrap;html=1;" vertex="1" parent="1">
          <mxGeometry x="120" y="90" width="120" height="60" as="geometry" />
        </mxCell>
        <mxCell id="_QAs57ZrCI3nKzvENa5E-3" style="edgeStyle=orthogonalEdgeStyle;rounded=0;orthogonalLoop=1;jettySize=auto;html=1;exitX=0.5;exitY=0.5;exitDx=0;exitDy=0;exitPerimeter=0;entryX=0;entryY=0.5;entryDx=0;entryDy=0;" edge="1" parent="1" source="_QAs57ZrCI3nKzvENa5E-2" target="_QAs57ZrCI3nKzvENa5E-1">
          <mxGeometry relative="1" as="geometry" />
        </mxCell>
        <mxCell id="_QAs57ZrCI3nKzvENa5E-19" style="edgeStyle=orthogonalEdgeStyle;rounded=0;orthogonalLoop=1;jettySize=auto;html=1;exitX=0.5;exitY=0.5;exitDx=0;exitDy=0;exitPerimeter=0;entryX=0;entryY=0.5;entryDx=0;entryDy=0;" edge="1" parent="1" source="_QAs57ZrCI3nKzvENa5E-2" target="_QAs57ZrCI3nKzvENa5E-18">
          <mxGeometry relative="1" as="geometry" />
        </mxCell>
        <mxCell id="_QAs57ZrCI3nKzvENa5E-28" style="edgeStyle=orthogonalEdgeStyle;rounded=0;orthogonalLoop=1;jettySize=auto;html=1;exitX=0.5;exitY=0.5;exitDx=0;exitDy=0;exitPerimeter=0;entryX=0;entryY=0.5;entryDx=0;entryDy=0;" edge="1" parent="1" source="_QAs57ZrCI3nKzvENa5E-2" target="_QAs57ZrCI3nKzvENa5E-26">
          <mxGeometry relative="1" as="geometry" />
        </mxCell>
        <mxCell id="_QAs57ZrCI3nKzvENa5E-2" value="Actor" style="shape=umlActor;verticalLabelPosition=bottom;verticalAlign=top;html=1;outlineConnect=0;" vertex="1" parent="1">
          <mxGeometry x="20" y="230" width="30" height="60" as="geometry" />
        </mxCell>
        <mxCell id="_QAs57ZrCI3nKzvENa5E-10" style="edgeStyle=orthogonalEdgeStyle;rounded=0;orthogonalLoop=1;jettySize=auto;html=1;exitX=1;exitY=0.5;exitDx=0;exitDy=0;entryX=0;entryY=0.5;entryDx=0;entryDy=0;" edge="1" parent="1" source="_QAs57ZrCI3nKzvENa5E-4" target="_QAs57ZrCI3nKzvENa5E-6">
          <mxGeometry relative="1" as="geometry" />
        </mxCell>
        <mxCell id="_QAs57ZrCI3nKzvENa5E-11" style="edgeStyle=orthogonalEdgeStyle;rounded=0;orthogonalLoop=1;jettySize=auto;html=1;exitX=1;exitY=0.5;exitDx=0;exitDy=0;entryX=0;entryY=0.5;entryDx=0;entryDy=0;" edge="1" parent="1" source="_QAs57ZrCI3nKzvENa5E-4" target="_QAs57ZrCI3nKzvENa5E-5">
          <mxGeometry relative="1" as="geometry" />
        </mxCell>
        <mxCell id="_QAs57ZrCI3nKzvENa5E-12" style="edgeStyle=orthogonalEdgeStyle;rounded=0;orthogonalLoop=1;jettySize=auto;html=1;exitX=1;exitY=0.5;exitDx=0;exitDy=0;entryX=0;entryY=0.5;entryDx=0;entryDy=0;" edge="1" parent="1" source="_QAs57ZrCI3nKzvENa5E-4" target="_QAs57ZrCI3nKzvENa5E-7">
          <mxGeometry relative="1" as="geometry" />
        </mxCell>
        <mxCell id="_QAs57ZrCI3nKzvENa5E-4" value="Choose Book" style="rounded=0;whiteSpace=wrap;html=1;" vertex="1" parent="1">
          <mxGeometry x="280" y="90" width="120" height="60" as="geometry" />
        </mxCell>
        <mxCell id="_QAs57ZrCI3nKzvENa5E-14" style="edgeStyle=orthogonalEdgeStyle;rounded=0;orthogonalLoop=1;jettySize=auto;html=1;exitX=1;exitY=0.5;exitDx=0;exitDy=0;entryX=0;entryY=0.5;entryDx=0;entryDy=0;" edge="1" parent="1" source="_QAs57ZrCI3nKzvENa5E-5" target="_QAs57ZrCI3nKzvENa5E-13">
          <mxGeometry relative="1" as="geometry" />
        </mxCell>
        <mxCell id="_QAs57ZrCI3nKzvENa5E-5" value="Forest" style="ellipse;whiteSpace=wrap;html=1;" vertex="1" parent="1">
          <mxGeometry x="450" width="120" height="60" as="geometry" />
        </mxCell>
        <mxCell id="_QAs57ZrCI3nKzvENa5E-17" style="edgeStyle=orthogonalEdgeStyle;rounded=0;orthogonalLoop=1;jettySize=auto;html=1;exitX=1;exitY=0.5;exitDx=0;exitDy=0;entryX=0;entryY=0.5;entryDx=0;entryDy=0;" edge="1" parent="1" source="_QAs57ZrCI3nKzvENa5E-6" target="_QAs57ZrCI3nKzvENa5E-13">
          <mxGeometry relative="1" as="geometry" />
        </mxCell>
        <mxCell id="_QAs57ZrCI3nKzvENa5E-6" value="Castle" style="ellipse;whiteSpace=wrap;html=1;" vertex="1" parent="1">
          <mxGeometry x="450" y="90" width="120" height="60" as="geometry" />
        </mxCell>
        <mxCell id="_QAs57ZrCI3nKzvENa5E-16" style="edgeStyle=orthogonalEdgeStyle;rounded=0;orthogonalLoop=1;jettySize=auto;html=1;exitX=1;exitY=0.5;exitDx=0;exitDy=0;entryX=0;entryY=0.5;entryDx=0;entryDy=0;" edge="1" parent="1" source="_QAs57ZrCI3nKzvENa5E-7" target="_QAs57ZrCI3nKzvENa5E-13">
          <mxGeometry relative="1" as="geometry" />
        </mxCell>
        <mxCell id="_QAs57ZrCI3nKzvENa5E-7" value="L&lt;span style=&quot;background-color: transparent; color: light-dark(rgb(0, 0, 0), rgb(255, 255, 255));&quot;&gt;aboratory&lt;/span&gt;" style="ellipse;whiteSpace=wrap;html=1;" vertex="1" parent="1">
          <mxGeometry x="450" y="170" width="120" height="60" as="geometry" />
        </mxCell>
        <mxCell id="_QAs57ZrCI3nKzvENa5E-13" value="Mentor&lt;div&gt;Guide&lt;/div&gt;" style="rounded=0;whiteSpace=wrap;html=1;" vertex="1" parent="1">
          <mxGeometry x="650" y="90" width="120" height="60" as="geometry" />
        </mxCell>
        <mxCell id="_QAs57ZrCI3nKzvENa5E-21" style="edgeStyle=orthogonalEdgeStyle;rounded=0;orthogonalLoop=1;jettySize=auto;html=1;exitX=1;exitY=0.5;exitDx=0;exitDy=0;entryX=0;entryY=0.5;entryDx=0;entryDy=0;" edge="1" parent="1" source="_QAs57ZrCI3nKzvENa5E-18" target="_QAs57ZrCI3nKzvENa5E-20">
          <mxGeometry relative="1" as="geometry" />
        </mxCell>
        <mxCell id="_QAs57ZrCI3nKzvENa5E-18" value="Start Adventure" style="rounded=0;whiteSpace=wrap;html=1;" vertex="1" parent="1">
          <mxGeometry x="120" y="230" width="120" height="60" as="geometry" />
        </mxCell>
        <mxCell id="_QAs57ZrCI3nKzvENa5E-23" style="edgeStyle=orthogonalEdgeStyle;rounded=0;orthogonalLoop=1;jettySize=auto;html=1;exitX=1;exitY=0.5;exitDx=0;exitDy=0;entryX=0;entryY=0.5;entryDx=0;entryDy=0;" edge="1" parent="1" source="_QAs57ZrCI3nKzvENa5E-20" target="_QAs57ZrCI3nKzvENa5E-22">
          <mxGeometry relative="1" as="geometry" />
        </mxCell>
        <mxCell id="_QAs57ZrCI3nKzvENa5E-25" style="edgeStyle=orthogonalEdgeStyle;rounded=0;orthogonalLoop=1;jettySize=auto;html=1;exitX=1;exitY=0.5;exitDx=0;exitDy=0;entryX=0;entryY=0.5;entryDx=0;entryDy=0;" edge="1" parent="1" source="_QAs57ZrCI3nKzvENa5E-20" target="_QAs57ZrCI3nKzvENa5E-24">
          <mxGeometry relative="1" as="geometry" />
        </mxCell>
        <mxCell id="_QAs57ZrCI3nKzvENa5E-20" value="Mode Choose" style="rounded=0;whiteSpace=wrap;html=1;" vertex="1" parent="1">
          <mxGeometry x="270" y="230" width="120" height="60" as="geometry" />
        </mxCell>
        <mxCell id="_QAs57ZrCI3nKzvENa5E-22" value="Spell" style="rounded=0;whiteSpace=wrap;html=1;" vertex="1" parent="1">
          <mxGeometry x="450" y="240" width="120" height="60" as="geometry" />
        </mxCell>
        <mxCell id="_QAs57ZrCI3nKzvENa5E-24" value="J&lt;span style=&quot;background-color: transparent; color: light-dark(rgb(0, 0, 0), rgb(255, 255, 255));&quot;&gt;udge&lt;/span&gt;" style="rounded=0;whiteSpace=wrap;html=1;" vertex="1" parent="1">
          <mxGeometry x="450" y="320" width="120" height="60" as="geometry" />
        </mxCell>
        <mxCell id="_QAs57ZrCI3nKzvENa5E-29" style="edgeStyle=orthogonalEdgeStyle;rounded=0;orthogonalLoop=1;jettySize=auto;html=1;exitX=1;exitY=0.5;exitDx=0;exitDy=0;entryX=0;entryY=0.5;entryDx=0;entryDy=0;" edge="1" parent="1" source="_QAs57ZrCI3nKzvENa5E-26" target="_QAs57ZrCI3nKzvENa5E-27">
          <mxGeometry relative="1" as="geometry" />
        </mxCell>
        <mxCell id="_QAs57ZrCI3nKzvENa5E-26" value="Fight" style="rounded=0;whiteSpace=wrap;html=1;" vertex="1" parent="1">
          <mxGeometry x="120" y="360" width="120" height="60" as="geometry" />
        </mxCell>
        <mxCell id="_QAs57ZrCI3nKzvENa5E-31" style="edgeStyle=orthogonalEdgeStyle;rounded=0;orthogonalLoop=1;jettySize=auto;html=1;exitX=0.5;exitY=1;exitDx=0;exitDy=0;entryX=0.5;entryY=0;entryDx=0;entryDy=0;" edge="1" parent="1" source="_QAs57ZrCI3nKzvENa5E-27" target="_QAs57ZrCI3nKzvENa5E-30">
          <mxGeometry relative="1" as="geometry" />
        </mxCell>
        <mxCell id="_QAs57ZrCI3nKzvENa5E-27" value="System Hint&lt;div&gt;(Chinese)&lt;/div&gt;" style="rounded=0;whiteSpace=wrap;html=1;" vertex="1" parent="1">
          <mxGeometry x="270" y="360" width="120" height="60" as="geometry" />
        </mxCell>
        <mxCell id="_QAs57ZrCI3nKzvENa5E-33" style="edgeStyle=orthogonalEdgeStyle;rounded=0;orthogonalLoop=1;jettySize=auto;html=1;exitX=1;exitY=0.5;exitDx=0;exitDy=0;entryX=0;entryY=0.5;entryDx=0;entryDy=0;" edge="1" parent="1" source="_QAs57ZrCI3nKzvENa5E-30" target="_QAs57ZrCI3nKzvENa5E-32">
          <mxGeometry relative="1" as="geometry" />
        </mxCell>
        <mxCell id="_QAs57ZrCI3nKzvENa5E-30" value="Input Word" style="rounded=0;whiteSpace=wrap;html=1;" vertex="1" parent="1">
          <mxGeometry x="270" y="450" width="120" height="60" as="geometry" />
        </mxCell>
        <mxCell id="_QAs57ZrCI3nKzvENa5E-37" style="edgeStyle=orthogonalEdgeStyle;rounded=0;orthogonalLoop=1;jettySize=auto;html=1;exitX=1;exitY=0.5;exitDx=0;exitDy=0;entryX=0;entryY=0.5;entryDx=0;entryDy=0;" edge="1" parent="1" source="_QAs57ZrCI3nKzvENa5E-32" target="_QAs57ZrCI3nKzvENa5E-35">
          <mxGeometry relative="1" as="geometry" />
        </mxCell>
        <mxCell id="_QAs57ZrCI3nKzvENa5E-38" style="edgeStyle=orthogonalEdgeStyle;rounded=0;orthogonalLoop=1;jettySize=auto;html=1;exitX=1;exitY=0.5;exitDx=0;exitDy=0;entryX=0;entryY=0.5;entryDx=0;entryDy=0;" edge="1" parent="1" source="_QAs57ZrCI3nKzvENa5E-32" target="_QAs57ZrCI3nKzvENa5E-36">
          <mxGeometry relative="1" as="geometry" />
        </mxCell>
        <mxCell id="_QAs57ZrCI3nKzvENa5E-32" value="Is right?" style="rhombus;whiteSpace=wrap;html=1;" vertex="1" parent="1">
          <mxGeometry x="440" y="440" width="80" height="80" as="geometry" />
        </mxCell>
        <mxCell id="_QAs57ZrCI3nKzvENa5E-35" value="Hit Enemy" style="rounded=0;whiteSpace=wrap;html=1;" vertex="1" parent="1">
          <mxGeometry x="620" y="390" width="120" height="60" as="geometry" />
        </mxCell>
        <mxCell id="_QAs57ZrCI3nKzvENa5E-36" value="Hit Player" style="rounded=0;whiteSpace=wrap;html=1;" vertex="1" parent="1">
          <mxGeometry x="620" y="490" width="120" height="60" as="geometry" />
        </mxCell>
      </root>
    </mxGraphModel>
  </diagram>
</mxfile>
